<svg width="500" height="434" viewBox="0 0 500 434" fill="none" xmlns="http://www.w3.org/2000/svg">
<path d="M290.222 182.097L332.333 141.875L274.458 133.931L248.972 81.681L223.513 133.931L165.638 141.861L207.75 182.084L197.5 239.264L248.972 211.861L300.472 239.264L290.222 182.097ZM92.708 271.084C74.666 243.861 64.083 211.764 64.083 177.264C64.083 79.361 148.013 0 251.583 0C355.138 0 439.083 79.361 439.083 177.264C439.083 212.57 428.041 245.389 409.222 273.014C396.583 266.917 383.638 261.5 370.43 256.889C387.347 234.375 397.416 206.931 397.416 177.264C397.416 101.25 331.972 39.403 251.583 39.403C171.18 39.403 105.75 101.25 105.75 177.264C105.75 206.347 115.375 233.292 131.666 255.556C118.416 259.986 105.416 265.167 92.708 271.084ZM411.597 319.347L362.972 384.778C329.583 366.584 291.138 355.945 250 355.764C208.847 355.945 170.416 366.584 137.013 384.778L88.388 319.347C135.597 292.042 190.722 275.972 250 275.792C309.263 275.972 364.388 292.042 411.597 319.347ZM500 374.25H450.847L439.055 433.334C426.291 413.403 410.138 395.667 391.625 380.542L440.43 314.847C463.097 332.167 483.18 351.25 500 374.25ZM59.583 314.847L108.388 380.542C89.847 395.695 73.722 413.403 60.958 433.334L49.166 374.25H0C16.805 351.25 36.888 332.167 59.583 314.847Z" fill="#6D30F3"/>
<path d="M249.569 271.514C308.48 271.514 356.236 223.758 356.236 164.847C356.236 105.936 308.48 58.18 249.569 58.18C190.658 58.18 142.902 105.936 142.902 164.847C142.902 223.758 190.658 271.514 249.569 271.514Z" fill="white"/>
<path d="M250 380.944C286.818 380.944 316.666 351.096 316.666 314.277C316.666 277.458 286.818 247.61 250 247.61C213.181 247.61 183.333 277.458 183.333 314.277C183.333 351.096 213.181 380.944 250 380.944Z" fill="#6D30F3" stroke="white" stroke-width="3.33333"/>
<path d="M249.696 374.734C282.833 374.734 309.696 347.871 309.696 314.734C309.696 281.597 282.833 254.734 249.696 254.734C216.559 254.734 189.696 281.597 189.696 314.734C189.696 347.871 216.559 374.734 249.696 374.734Z" fill="white" stroke="white" stroke-width="3.33333"/>
<path d="M276.867 338.915V351H223.371V340.688L248.669 313.563C251.211 310.735 253.216 308.246 254.685 306.098C256.153 303.913 257.209 301.962 257.854 300.243C258.534 298.489 258.874 296.824 258.874 295.248C258.874 292.885 258.48 290.862 257.692 289.179C256.905 287.46 255.741 286.135 254.201 285.204C252.697 284.273 250.835 283.808 248.615 283.808C246.252 283.808 244.211 284.381 242.492 285.526C240.809 286.672 239.52 288.266 238.625 290.307C237.766 292.348 237.336 294.657 237.336 297.235H221.813C221.813 292.58 222.924 288.319 225.144 284.452C227.364 280.549 230.497 277.452 234.543 275.16C238.589 272.833 243.387 271.669 248.938 271.669C254.416 271.669 259.035 272.564 262.795 274.354C266.59 276.109 269.455 278.651 271.389 281.981C273.358 285.276 274.343 289.215 274.343 293.798C274.343 296.376 273.931 298.9 273.107 301.371C272.284 303.806 271.102 306.241 269.562 308.676C268.059 311.075 266.232 313.51 264.084 315.98C261.936 318.451 259.554 321.011 256.94 323.661L243.352 338.915H276.867Z" fill="#6D30F3"/>
<path d="M250.5 85.5833C290.706 85.5833 323.417 118.294 323.417 158.5C323.417 198.706 290.706 231.417 250.5 231.417C210.294 231.417 177.583 198.706 177.583 158.5C177.583 118.294 210.294 85.5833 250.5 85.5833ZM250.5 71C202.178 71 163 110.178 163 158.5C163 206.822 202.178 246 250.5 246C298.822 246 338 206.822 338 158.5C338 110.178 298.822 71 250.5 71ZM294.25 114.743L253.264 136.516C246.708 135.757 240.095 137.908 235.224 142.779C230.397 147.614 228.297 154.161 228.939 160.483L206.75 202.25L248.487 180.069C254.933 180.718 261.408 178.574 266.221 173.761C270.844 169.139 273.286 162.649 272.484 155.729L294.25 114.743V114.743ZM250.719 167.389C245.695 167.389 241.604 163.312 241.604 158.281C241.597 153.243 245.68 149.159 250.719 149.167C255.75 149.167 259.833 153.25 259.833 158.281C259.826 163.305 255.75 167.389 250.719 167.389ZM250.5 209.542C246.468 209.542 243.208 212.808 243.208 216.833C243.208 220.858 246.468 224.125 250.5 224.125C254.532 224.125 257.792 220.858 257.792 216.833C257.792 212.808 254.532 209.542 250.5 209.542ZM192.167 151.208C188.134 151.208 184.875 154.475 184.875 158.5C184.875 162.525 188.134 165.792 192.167 165.792C196.199 165.792 199.458 162.525 199.458 158.5C199.458 154.475 196.199 151.208 192.167 151.208ZM250.5 92.875C246.468 92.875 243.208 96.1417 243.208 100.167C243.208 104.192 246.468 107.458 250.5 107.458C254.532 107.458 257.792 104.192 257.792 100.167C257.792 96.1417 254.532 92.875 250.5 92.875ZM308.833 151.208C304.801 151.208 301.542 154.475 301.542 158.5C301.542 162.525 304.801 165.792 308.833 165.792C312.866 165.792 316.125 162.525 316.125 158.5C316.125 154.475 312.866 151.208 308.833 151.208Z" fill="#6D30F3"/>
</svg>
