<svg width="500" height="434" viewBox="0 0 500 434" fill="none" xmlns="http://www.w3.org/2000/svg">
<path d="M290.222 182.097L332.333 141.875L274.458 133.931L248.972 81.681L223.513 133.931L165.638 141.861L207.75 182.084L197.5 239.264L248.972 211.861L300.472 239.264L290.222 182.097ZM92.708 271.084C74.666 243.861 64.083 211.764 64.083 177.264C64.083 79.361 148.013 0 251.583 0C355.138 0 439.083 79.361 439.083 177.264C439.083 212.57 428.041 245.389 409.222 273.014C396.583 266.917 383.638 261.5 370.43 256.889C387.347 234.375 397.416 206.931 397.416 177.264C397.416 101.25 331.972 39.403 251.583 39.403C171.18 39.403 105.75 101.25 105.75 177.264C105.75 206.347 115.375 233.292 131.666 255.556C118.416 259.986 105.416 265.167 92.708 271.084ZM411.597 319.347L362.972 384.778C329.583 366.584 291.138 355.945 250 355.764C208.847 355.945 170.416 366.584 137.013 384.778L88.388 319.347C135.597 292.042 190.722 275.972 250 275.792C309.263 275.972 364.388 292.042 411.597 319.347ZM500 374.25H450.847L439.055 433.334C426.291 413.403 410.138 395.667 391.625 380.542L440.43 314.847C463.097 332.167 483.18 351.25 500 374.25ZM59.583 314.847L108.388 380.542C89.847 395.695 73.722 413.403 60.958 433.334L49.166 374.25H0C16.805 351.25 36.888 332.167 59.583 314.847Z" fill="#6D30F3"/>
<path d="M249.569 271.514C308.48 271.514 356.236 223.758 356.236 164.847C356.236 105.936 308.48 58.18 249.569 58.18C190.658 58.18 142.902 105.936 142.902 164.847C142.902 223.758 190.658 271.514 249.569 271.514Z" fill="white"/>
<path d="M250 380.944C286.818 380.944 316.666 351.096 316.666 314.277C316.666 277.458 286.818 247.61 250 247.61C213.181 247.61 183.333 277.458 183.333 314.277C183.333 351.096 213.181 380.944 250 380.944Z" fill="#6D30F3" stroke="white" stroke-width="3.33333"/>
<path d="M249.696 374.734C282.833 374.734 309.696 347.871 309.696 314.734C309.696 281.597 282.833 254.734 249.696 254.734C216.559 254.734 189.696 281.597 189.696 314.734C189.696 347.871 216.559 374.734 249.696 374.734Z" fill="white" stroke="white" stroke-width="3.33333"/>
<path d="M239.216 305.185H247.487C250.137 305.185 252.321 304.737 254.04 303.842C255.759 302.911 257.03 301.622 257.854 299.975C258.713 298.292 259.143 296.34 259.143 294.12C259.143 292.115 258.749 290.342 257.961 288.803C257.209 287.227 256.045 286.01 254.47 285.15C252.894 284.255 250.907 283.808 248.508 283.808C246.61 283.808 244.855 284.184 243.244 284.936C241.633 285.688 240.344 286.744 239.377 288.104C238.41 289.465 237.927 291.112 237.927 293.046H222.404C222.404 288.749 223.55 285.007 225.842 281.82C228.169 278.633 231.285 276.145 235.188 274.354C239.09 272.564 243.387 271.669 248.078 271.669C253.378 271.669 258.015 272.528 261.989 274.247C265.964 275.93 269.061 278.419 271.281 281.713C273.501 285.007 274.611 289.089 274.611 293.959C274.611 296.43 274.038 298.829 272.893 301.156C271.747 303.448 270.1 305.525 267.951 307.387C265.839 309.213 263.26 310.681 260.217 311.791C257.173 312.865 253.754 313.402 249.958 313.402H239.216V305.185ZM239.216 316.947V308.944H249.958C254.219 308.944 257.961 309.428 261.184 310.395C264.406 311.361 267.11 312.758 269.294 314.584C271.478 316.374 273.125 318.505 274.235 320.976C275.345 323.41 275.9 326.114 275.9 329.086C275.9 332.738 275.202 335.997 273.806 338.861C272.409 341.69 270.44 344.089 267.897 346.059C265.391 348.028 262.455 349.532 259.089 350.57C255.723 351.573 252.053 352.074 248.078 352.074C244.784 352.074 241.543 351.627 238.356 350.731C235.205 349.8 232.341 348.422 229.763 346.596C227.22 344.734 225.179 342.406 223.64 339.613C222.136 336.785 221.384 333.437 221.384 329.569H236.906C236.906 331.575 237.408 333.365 238.41 334.94C239.413 336.516 240.791 337.751 242.546 338.646C244.336 339.542 246.324 339.989 248.508 339.989C250.979 339.989 253.091 339.542 254.846 338.646C256.636 337.715 257.997 336.426 258.928 334.779C259.895 333.096 260.378 331.145 260.378 328.925C260.378 326.06 259.859 323.769 258.82 322.05C257.782 320.295 256.296 319.006 254.362 318.183C252.429 317.359 250.137 316.947 247.487 316.947H239.216Z" fill="#6D30F3"/>
<path d="M250.5 85.5833C290.706 85.5833 323.417 118.294 323.417 158.5C323.417 198.706 290.706 231.417 250.5 231.417C210.294 231.417 177.583 198.706 177.583 158.5C177.583 118.294 210.294 85.5833 250.5 85.5833ZM250.5 71C202.178 71 163 110.178 163 158.5C163 206.822 202.178 246 250.5 246C298.822 246 338 206.822 338 158.5C338 110.178 298.822 71 250.5 71ZM294.25 114.743L253.264 136.516C246.708 135.757 240.095 137.908 235.224 142.779C230.397 147.614 228.297 154.161 228.939 160.483L206.75 202.25L248.487 180.069C254.933 180.718 261.408 178.574 266.221 173.761C270.844 169.139 273.286 162.649 272.484 155.729L294.25 114.743V114.743ZM250.719 167.389C245.695 167.389 241.604 163.312 241.604 158.281C241.597 153.243 245.68 149.159 250.719 149.167C255.75 149.167 259.833 153.25 259.833 158.281C259.826 163.305 255.75 167.389 250.719 167.389ZM250.5 209.542C246.468 209.542 243.208 212.808 243.208 216.833C243.208 220.858 246.468 224.125 250.5 224.125C254.532 224.125 257.792 220.858 257.792 216.833C257.792 212.808 254.532 209.542 250.5 209.542ZM192.167 151.208C188.134 151.208 184.875 154.475 184.875 158.5C184.875 162.525 188.134 165.792 192.167 165.792C196.199 165.792 199.458 162.525 199.458 158.5C199.458 154.475 196.199 151.208 192.167 151.208ZM250.5 92.875C246.468 92.875 243.208 96.1417 243.208 100.167C243.208 104.192 246.468 107.458 250.5 107.458C254.532 107.458 257.792 104.192 257.792 100.167C257.792 96.1417 254.532 92.875 250.5 92.875ZM308.833 151.208C304.801 151.208 301.542 154.475 301.542 158.5C301.542 162.525 304.801 165.792 308.833 165.792C312.866 165.792 316.125 162.525 316.125 158.5C316.125 154.475 312.866 151.208 308.833 151.208Z" fill="#6D30F3"/>
</svg>
