<svg width="500" height="434" viewBox="0 0 500 434" fill="none" xmlns="http://www.w3.org/2000/svg">
<path d="M290.222 182.097L332.333 141.875L274.458 133.931L248.972 81.681L223.513 133.931L165.638 141.861L207.75 182.084L197.5 239.264L248.972 211.861L300.472 239.264L290.222 182.097ZM92.708 271.084C74.666 243.861 64.083 211.764 64.083 177.264C64.083 79.361 148.013 0 251.583 0C355.138 0 439.083 79.361 439.083 177.264C439.083 212.57 428.041 245.389 409.222 273.014C396.583 266.917 383.638 261.5 370.43 256.889C387.347 234.375 397.416 206.931 397.416 177.264C397.416 101.25 331.972 39.403 251.583 39.403C171.18 39.403 105.75 101.25 105.75 177.264C105.75 206.347 115.375 233.292 131.666 255.556C118.416 259.986 105.416 265.167 92.708 271.084ZM411.597 319.347L362.972 384.778C329.583 366.584 291.138 355.945 250 355.764C208.847 355.945 170.416 366.584 137.013 384.778L88.388 319.347C135.597 292.042 190.722 275.972 250 275.792C309.263 275.972 364.388 292.042 411.597 319.347ZM500 374.25H450.847L439.055 433.334C426.291 413.403 410.138 395.667 391.625 380.542L440.43 314.847C463.097 332.167 483.18 351.25 500 374.25ZM59.583 314.847L108.388 380.542C89.847 395.695 73.722 413.403 60.958 433.334L49.166 374.25H0C16.805 351.25 36.888 332.167 59.583 314.847Z" fill="#6D30F3"/>
<path d="M249.569 271.514C308.48 271.514 356.236 223.758 356.236 164.847C356.236 105.936 308.48 58.18 249.569 58.18C190.658 58.18 142.902 105.936 142.902 164.847C142.902 223.758 190.658 271.514 249.569 271.514Z" fill="white"/>
<path d="M250 380.944C286.818 380.944 316.666 351.096 316.666 314.277C316.666 277.458 286.818 247.61 250 247.61C213.181 247.61 183.333 277.458 183.333 314.277C183.333 351.096 213.181 380.944 250 380.944Z" fill="#6D30F3" stroke="white" stroke-width="3.33333"/>
<path d="M249.696 374.734C282.833 374.734 309.696 347.871 309.696 314.734C309.696 281.597 282.833 254.734 249.696 254.734C216.559 254.734 189.696 281.597 189.696 314.734C189.696 347.871 216.559 374.734 249.696 374.734Z" fill="white" stroke="white" stroke-width="3.33333"/>
<path d="M276.867 341.915V354H223.371V343.688L248.669 316.563C251.211 313.735 253.216 311.246 254.685 309.098C256.153 306.913 257.209 304.962 257.854 303.243C258.534 301.489 258.874 299.824 258.874 298.248C258.874 295.885 258.48 293.862 257.692 292.179C256.905 290.46 255.741 289.135 254.201 288.204C252.697 287.273 250.835 286.808 248.615 286.808C246.252 286.808 244.211 287.381 242.492 288.526C240.809 289.672 239.52 291.266 238.625 293.307C237.766 295.348 237.336 297.657 237.336 300.235H221.813C221.813 295.58 222.924 291.319 225.144 287.452C227.364 283.549 230.497 280.452 234.543 278.16C238.589 275.833 243.387 274.669 248.938 274.669C254.416 274.669 259.035 275.564 262.795 277.354C266.59 279.109 269.455 281.651 271.389 284.981C273.358 288.276 274.343 292.215 274.343 296.798C274.343 299.376 273.931 301.9 273.107 304.371C272.284 306.806 271.102 309.241 269.562 311.676C268.059 314.075 266.232 316.51 264.084 318.98C261.936 321.451 259.554 324.011 256.94 326.661L243.352 341.915H276.867Z" fill="#6D30F3"/>
<path d="M244.408 228C242.867 230.1 240.492 231.208 238.083 231.208C236.467 231.208 234.842 230.708 233.433 229.683C229.942 227.108 229.192 222.217 231.75 218.725L240.725 206.592C243.292 203.117 248.192 202.358 251.683 204.933C255.192 207.483 255.942 212.392 253.358 215.875L244.408 228ZM237.533 204.342C240.1 200.858 239.342 195.95 235.858 193.375C232.35 190.808 227.458 191.575 224.883 195.067L215.942 207.142C213.367 210.633 214.133 215.55 217.625 218.117C221.1 220.675 226.017 219.933 228.583 216.433L237.533 204.342V204.342ZM221.7 192.775C224.275 189.3 223.508 184.383 220.008 181.817C216.525 179.258 211.617 180.017 209.058 183.5L200.033 195.675C197.467 199.167 198.292 203.967 201.775 206.542C205.283 209.108 210.108 208.45 212.675 204.958L221.7 192.775V192.775ZM205.883 181.225C208.45 177.733 207.708 172.833 204.192 170.267C200.7 167.692 195.8 168.45 193.233 171.942L184.275 184.033C181.708 187.517 182.467 192.433 185.958 194.992C189.45 197.55 194.358 196.808 196.917 193.308L205.883 181.225V181.225ZM350 110.908C350 110.908 337.042 113.417 327.775 114.9C309.892 117.767 293.242 111.433 274.767 101.883C271.058 99.975 266.792 98 262.617 98C258.775 98 255.008 99.7417 251.85 103.325C240.467 116.217 233.85 127.617 220.308 135.525C213.633 139.425 221.475 151.642 235.808 146.617C243.125 144.05 250.275 139.158 258.358 132.642C264.708 127.517 268.525 128.275 274.017 133.767C284.333 144.083 319.05 178.358 319.05 178.358C330.025 171.592 339.233 167.425 349.992 163.425V110.908H350ZM262.3 216.425C260.983 220.25 257.15 224.767 254.358 228.55C256.833 230.508 259.425 231.333 261.708 231.333C267.683 231.333 271.608 225.742 266.225 220.35L262.3 216.425V216.425ZM316.517 187.567C307.6 178.775 277.083 148.675 268.158 139.958C266.783 138.617 264.65 138.458 263.092 139.592C257.767 143.458 245.742 151.967 238.558 154.492C224.517 159.408 212.6 152.642 210.042 143.167C208.442 137.233 210.817 131.408 216.1 128.325C224.5 123.417 229.908 116.867 236.567 108.633C230.775 104.142 225.317 102.533 219.975 102.533C205.758 102.533 192.333 113.917 175.508 112.792C164.067 112.042 150 109.433 150 109.433V162.208C162.3 164.883 170.458 166.075 182.667 172.2L186.517 167C189.55 162.867 194.425 160.4 199.55 160.4C206.8 160.4 213.067 165.217 215.058 171.967C222.983 171.967 228.95 176.983 230.875 183.525C237.758 183.267 244.55 187.85 246.683 195.067C256.442 195.067 263.492 202.733 263.192 211.792L272.925 221.525C275.983 224.592 280.95 224.583 284.017 221.525C287.083 218.458 287.083 213.492 284.017 210.425L269.967 196.367C268.133 194.533 270.908 191.758 272.742 193.592L289.675 210.533C292.742 213.6 297.7 213.6 300.767 210.533C303.833 207.467 303.833 202.508 300.767 199.442L279.925 178.592C278.083 176.775 280.867 173.983 282.7 175.817L305.2 198.325C308.267 201.392 313.225 201.392 316.292 198.325C319.275 195.358 319.3 190.642 316.517 187.567V187.567Z" fill="#6D30F3"/>
</svg>
