<svg id="e0XRi8ZHwTb1" viewBox="0 0 801.95277 537" shape-rendering="geometricPrecision" text-rendering="geometricPrecision" xmlns="http://www.w3.org/2000/svg" xmlns:bx="https://boxy-svg.com">
  <defs>
    <style bx:fonts="Roboto">@import url(https://fonts.googleapis.com/css2?family=Roboto%3Aital%2Cwght%400%2C100%3B0%2C300%3B0%2C400%3B0%2C500%3B0%2C700%3B0%2C900%3B1%2C100%3B1%2C300%3B1%2C400%3B1%2C500%3B1%2C700%3B1%2C900&amp;display=swap);</style>
  </defs>
  <path d="M 448.116 227.983 L 497.471 180.844 L 429.642 171.533 L 399.771 110.296 L 369.932 171.533 L 302.103 180.826 L 351.459 227.969 L 339.446 294.983 L 399.771 262.866 L 460.129 294.983 L 448.116 227.983 Z M 216.631 332.277 C 195.484 300.37 183.082 262.753 183.082 222.319 C 183.082 107.576 281.446 14.566 402.832 14.566 C 524.197 14.566 622.582 107.576 622.582 222.319 C 622.582 263.698 609.64 302.163 587.584 334.538 C 572.772 327.392 557.599 321.044 542.12 315.641 C 561.946 289.254 573.747 257.089 573.747 222.319 C 573.747 133.231 497.047 60.747 402.832 60.747 C 308.599 60.747 231.915 133.231 231.915 222.319 C 231.915 256.404 243.196 287.983 262.288 314.078 C 246.759 319.27 231.523 325.341 216.631 332.277 Z M 590.367 388.84 L 533.379 465.526 C 494.248 444.203 449.189 431.733 400.976 431.521 C 352.744 431.733 307.703 444.203 268.554 465.526 L 211.566 388.84 C 266.895 356.838 331.502 338.005 400.976 337.793 C 470.431 338.005 535.038 356.838 590.367 388.84 Z M 693.976 453.187 L 636.368 453.187 L 622.549 522.434 C 607.589 499.075 588.657 478.287 566.961 460.56 L 624.16 383.566 C 650.725 403.865 674.263 426.231 693.976 453.187 Z M 177.808 383.566 L 235.006 460.56 C 213.276 478.32 194.378 499.075 179.42 522.434 L 165.598 453.187 L 107.976 453.187 C 127.672 426.231 151.208 403.865 177.808 383.566 Z" style="fill: rgb(109, 48, 243);"></path>
  <ellipse style="fill-rule: nonzero; paint-order: stroke markers; stroke: rgb(255, 255, 255); stroke-width: 0px; fill: rgb(255, 255, 255);" cx="400.471" cy="207.766" rx="125.013" ry="125.013"></ellipse>
  <g transform="matrix(3.906667, 0, 0, 3.906667, -1165.50293, -353.241791)">
    <ellipse style="stroke: rgb(255, 255, 255); fill-rule: nonzero; paint-order: stroke markers; fill: rgb(109, 48, 243);" cx="400.976" cy="188.432" rx="20" ry="20"></ellipse>
    <ellipse style="stroke: rgb(255, 255, 255); fill-rule: nonzero; paint-order: stroke markers; fill: rgb(255, 255, 255);" cx="400.885" cy="188.569" rx="18" ry="18"></ellipse>
  </g>
  <text style="fill: rgb(109, 48, 243); font-family: Roboto; font-size: 120.5px; font-weight: 900; white-space: pre;" x="365.036" y="405.06" dx="-0.774" dy="19.869">1</text>
  <path d="M 398.042 284.802 C 395.982 287.608 392.81 289.089 389.591 289.089 C 387.432 289.089 385.259 288.422 383.378 287.051 C 378.713 283.612 377.712 277.076 381.129 272.411 L 393.121 256.2 C 396.551 251.556 403.097 250.544 407.762 253.983 C 412.45 257.391 413.453 263.948 409.999 268.602 L 398.042 284.802 Z M 388.858 253.194 C 392.285 248.54 391.273 241.981 386.619 238.54 C 381.931 235.113 375.395 236.137 371.955 240.801 L 360.008 256.934 C 356.568 261.599 357.592 268.167 362.258 271.597 C 366.899 275.016 373.47 274.023 376.898 269.348 L 388.858 253.194 Z M 367.702 237.738 C 371.142 233.096 370.117 226.527 365.442 223.097 C 360.788 219.68 354.229 220.692 350.812 225.346 L 338.755 241.614 C 335.324 246.278 336.426 252.693 341.082 256.133 C 345.768 259.562 352.216 258.682 355.643 254.017 L 367.702 237.738 Z M 346.569 222.308 C 349.999 217.642 349.01 211.095 344.31 207.666 C 339.644 204.227 333.098 205.239 329.668 209.903 L 317.699 226.06 C 314.27 230.714 315.283 237.282 319.948 240.701 C 324.612 244.118 331.172 243.128 334.589 238.452 L 346.569 222.308 Z M 539.121 128.359 C 539.121 128.359 521.809 131.71 509.428 133.691 C 485.533 137.522 463.287 129.061 438.602 116.3 C 433.649 113.751 427.948 111.113 422.37 111.113 C 417.238 111.113 412.205 113.44 407.985 118.227 C 392.776 135.451 383.935 150.682 365.843 161.25 C 356.923 166.46 367.401 182.782 386.553 176.069 C 396.327 172.639 405.881 166.103 416.681 157.398 C 425.166 150.548 430.263 151.562 437.601 158.898 C 451.385 172.683 497.769 218.478 497.769 218.478 C 512.433 209.436 524.735 203.869 539.111 198.524 L 539.111 128.359 L 539.121 128.359 Z M 421.946 269.338 C 420.188 274.448 415.065 280.482 411.336 285.538 C 414.643 288.154 418.107 289.257 421.157 289.257 C 429.14 289.257 434.383 281.786 427.191 274.581 L 421.946 269.338 Z M 494.383 230.78 C 482.472 219.034 441.698 178.819 429.775 167.172 C 427.937 165.379 425.087 165.168 423.004 166.681 C 415.89 171.847 399.824 183.216 390.226 186.59 C 371.465 193.159 355.543 184.118 352.126 171.458 C 349.989 163.53 353.161 155.749 360.22 151.629 C 371.443 145.071 378.669 136.319 387.564 125.319 C 379.828 119.318 372.533 117.168 365.397 117.168 C 346.402 117.168 328.464 132.377 305.987 130.874 C 290.699 129.873 271.905 126.388 271.905 126.388 L 271.905 196.901 C 288.338 200.474 299.239 202.066 315.549 210.248 L 320.694 203.301 C 324.748 197.78 331.26 194.482 338.107 194.482 C 347.793 194.482 356.167 200.919 358.83 209.937 C 369.417 209.937 377.389 216.641 379.961 225.38 C 389.157 225.035 398.231 231.159 401.081 240.801 C 414.119 240.801 423.538 251.044 423.139 263.147 L 436.144 276.152 C 440.229 280.249 446.864 280.238 450.962 276.152 C 455.059 272.053 455.059 265.42 450.962 261.32 L 432.19 242.538 C 429.741 240.087 433.448 236.381 435.899 238.831 L 458.523 261.466 C 462.619 265.563 469.244 265.563 473.342 261.466 C 477.439 257.368 477.439 250.744 473.342 246.647 L 445.496 218.788 C 443.035 216.362 446.752 212.633 449.203 215.081 L 479.264 245.156 C 483.361 249.251 489.987 249.251 494.084 245.156 C 498.071 241.192 498.102 234.889 494.383 230.78 Z" style="fill: rgb(109, 48, 243);"></path>
</svg>