<svg width="500" height="434" viewBox="0 0 500 434" fill="none" xmlns="http://www.w3.org/2000/svg">
<path d="M290.222 182.097L332.333 141.875L274.458 133.931L248.972 81.681L223.513 133.931L165.638 141.861L207.75 182.084L197.5 239.264L248.972 211.861L300.472 239.264L290.222 182.097ZM92.708 271.084C74.666 243.861 64.083 211.764 64.083 177.264C64.083 79.361 148.013 0 251.583 0C355.138 0 439.083 79.361 439.083 177.264C439.083 212.57 428.041 245.389 409.222 273.014C396.583 266.917 383.638 261.5 370.43 256.889C387.347 234.375 397.416 206.931 397.416 177.264C397.416 101.25 331.972 39.403 251.583 39.403C171.18 39.403 105.75 101.25 105.75 177.264C105.75 206.347 115.375 233.292 131.666 255.556C118.416 259.986 105.416 265.167 92.708 271.084ZM411.597 319.347L362.972 384.778C329.583 366.584 291.138 355.945 250 355.764C208.847 355.945 170.416 366.584 137.013 384.778L88.388 319.347C135.597 292.042 190.722 275.972 250 275.792C309.263 275.972 364.388 292.042 411.597 319.347ZM500 374.25H450.847L439.055 433.334C426.291 413.403 410.138 395.667 391.625 380.542L440.43 314.847C463.097 332.167 483.18 351.25 500 374.25ZM59.583 314.847L108.388 380.542C89.847 395.695 73.722 413.403 60.958 433.334L49.166 374.25H0C16.805 351.25 36.888 332.167 59.583 314.847Z" fill="#6D30F3"/>
<path d="M249.569 271.514C308.48 271.514 356.236 223.758 356.236 164.847C356.236 105.936 308.48 58.18 249.569 58.18C190.658 58.18 142.902 105.936 142.902 164.847C142.902 223.758 190.658 271.514 249.569 271.514Z" fill="white"/>
<path d="M250 380.944C286.818 380.944 316.666 351.096 316.666 314.277C316.666 277.458 286.818 247.61 250 247.61C213.181 247.61 183.333 277.458 183.333 314.277C183.333 351.096 213.181 380.944 250 380.944Z" fill="#6D30F3" stroke="white" stroke-width="3.33333"/>
<path d="M249.696 374.734C282.833 374.734 309.696 347.871 309.696 314.734C309.696 281.597 282.833 254.734 249.696 254.734C216.559 254.734 189.696 281.597 189.696 314.734C189.696 347.871 216.559 374.734 249.696 374.734Z" fill="white" stroke="white" stroke-width="3.33333"/>
<path fill-rule="evenodd" clip-rule="evenodd" d="M273.98 241.634H194.577C198.136 220.941 200.693 199.621 191.7 186.899C180.341 170.828 175.132 154.567 175.002 139.97C174.696 104.584 203.85 77.8304 244.567 78.0008C293.902 78.2054 308.166 119.973 311.2 132.157C313.518 141.49 305.077 144.899 310.068 150.579C314.131 155.208 317.124 159.879 322.265 165.422C324.256 167.569 325.027 169.826 324.999 171.851C324.958 174.81 323.015 177.292 319.899 178.383C316.974 179.406 314.718 180.565 311.615 181.403C310.627 189.312 308.063 198.939 306.175 205.655C301.15 223.518 286.43 212.875 279.714 223.43C276.809 227.984 275.35 235.279 273.98 241.634V241.634ZM244.71 184.935C245.508 184.928 246.278 184.662 246.803 184.192L250.853 181.526H235.513L239.562 184.192C240.087 184.662 240.858 184.935 241.662 184.935H244.71V184.935ZM250.996 178.117C251.937 178.11 252.701 177.353 252.701 176.412C252.701 175.472 251.937 174.708 250.996 174.708H235.458C234.517 174.708 233.753 175.472 233.753 176.412C233.753 177.353 234.517 178.117 235.458 178.117H250.996ZM252.68 171.299C252.68 157.642 263.637 152.004 263.637 139.84C263.637 127.159 253.403 120.164 243.176 120.164C232.949 120.164 222.729 127.145 222.729 139.84C222.729 152.004 233.685 157.833 233.685 171.299H252.68V171.299ZM269.569 146.652L278.766 150.824L275.95 157.036L267.094 153.027C268.123 150.981 268.975 148.881 269.569 146.652ZM216.804 146.652C217.397 148.915 218.222 150.954 219.258 153.027L210.422 157.036L207.599 150.824L216.804 146.652V146.652ZM280.682 140.618V133.8H269.814C270.312 136.029 270.516 138.334 270.448 140.618H280.682ZM215.924 140.618V140.597C215.856 138.32 216.061 136.029 216.552 133.8H205.684V140.618H215.924V140.618ZM263.787 122.114L272.255 116.1L276.203 121.664L267.666 127.718C266.671 125.734 265.376 123.859 263.787 122.114V122.114ZM222.579 122.107C221.011 123.825 219.729 125.686 218.699 127.718L210.17 121.664L214.111 116.1L222.579 122.107V122.107ZM252.817 114.975L257.337 105.805L263.453 108.825L258.926 117.995C257.03 116.741 254.971 115.732 252.817 114.975ZM233.549 114.968C231.401 115.718 229.335 116.727 227.433 117.982L222.913 108.825L229.029 105.805L233.549 114.968V114.968ZM246.592 113.55C244.315 113.284 242.133 113.271 239.774 113.543V103.118H246.592V113.55Z" fill="#6D30F3"/>
<ellipse cx="244" cy="144.5" rx="47" ry="50.5" fill="#6D30F3"/>
<path d="M284 149.387V138.613L274.437 135.213C273.777 132.923 272.863 130.74 271.733 128.697L276.093 119.527L268.477 111.91L259.307 116.267C257.263 115.137 255.077 114.223 252.79 113.563L249.387 104H238.613L235.21 113.563C232.923 114.223 230.737 115.133 228.693 116.267L219.523 111.907L211.907 119.523L216.267 128.697C215.137 130.74 214.22 132.923 213.563 135.213L204 138.613V149.387L213.563 152.787C214.22 155.077 215.137 157.26 216.267 159.303L211.907 168.473L219.523 176.093L228.693 171.733C230.737 172.863 232.923 173.777 235.21 174.437L238.613 184H249.387L252.79 174.437C255.08 173.777 257.263 172.863 259.307 171.733L268.477 176.093L276.093 168.473L271.733 159.303C272.863 157.26 273.777 155.077 274.437 152.787L284 149.387V149.387ZM244 157.333C236.637 157.333 230.667 151.363 230.667 144C230.667 136.637 236.637 130.667 244 130.667C251.363 130.667 257.333 136.637 257.333 144C257.333 151.363 251.363 157.333 244 157.333Z" fill="white"/>
<path d="M273.156 321.781V333.92H216.813L216.062 324.521L248.664 272.797H260.964L247.644 295.087L231.423 321.781H273.156ZM264.294 272.797V351H248.825V272.797H264.294Z" fill="#6D30F3"/>
</svg>
