<svg id="e0XRi8ZHwTb1" viewBox="0 0 801.95277 537" shape-rendering="geometricPrecision" text-rendering="geometricPrecision" xmlns="http://www.w3.org/2000/svg" xmlns:bx="https://boxy-svg.com">
  <defs>
    <style bx:fonts="Roboto">@import url(https://fonts.googleapis.com/css2?family=Roboto%3Aital%2Cwght%400%2C100%3B0%2C300%3B0%2C400%3B0%2C500%3B0%2C700%3B0%2C900%3B1%2C100%3B1%2C300%3B1%2C400%3B1%2C500%3B1%2C700%3B1%2C900&amp;display=swap);</style>
  </defs>
  <path d="M 413.044 148.779 L 425.676 136.713 L 408.313 134.33 L 400.669 118.654 L 393.032 134.33 L 375.669 136.706 L 388.301 148.773 L 385.226 165.927 L 400.669 157.708 L 416.119 165.927 L 413.044 148.779 Z M 353.788 175.475 C 348.376 167.309 345.201 157.678 345.201 147.33 C 345.201 117.957 370.382 94.149 401.451 94.149 C 432.519 94.149 457.701 117.957 457.701 147.33 C 457.701 157.92 454.388 167.764 448.744 176.055 C 444.951 174.223 441.069 172.598 437.107 171.215 C 442.182 164.461 445.201 156.23 445.201 147.33 C 445.201 124.522 425.569 105.968 401.451 105.968 C 377.332 105.968 357.701 124.522 357.701 147.33 C 357.701 156.053 360.588 164.136 365.476 170.814 C 361.501 172.143 357.601 173.698 353.788 175.475 Z M 449.457 189.953 L 434.869 209.583 C 424.851 204.123 413.319 200.933 400.976 200.879 C 388.632 200.933 377.101 204.123 367.082 209.583 L 352.494 189.953 C 366.657 181.763 383.194 176.941 400.976 176.888 C 418.757 176.941 435.294 181.763 449.457 189.953 Z M 475.976 206.422 L 461.232 206.422 L 457.694 224.149 C 453.863 218.169 449.019 212.85 443.463 208.313 L 458.107 188.605 C 464.907 193.8 470.932 199.525 475.976 206.422 Z M 343.851 188.605 L 358.494 208.313 C 352.932 212.857 348.094 218.169 344.263 224.149 L 340.726 206.422 L 325.976 206.422 C 331.019 199.525 337.044 193.8 343.851 188.605 Z" style="fill: rgb(109, 48, 243);"></path>
  <ellipse style="fill-rule: nonzero; paint-order: stroke markers; stroke: rgb(255, 255, 255); stroke-width: 0px; fill: rgb(255, 255, 255);" cx="400.847" cy="143.602" rx="32" ry="31.999"></ellipse>
  <g>
    <ellipse style="stroke: rgb(255, 255, 255); fill-rule: nonzero; paint-order: stroke markers; fill: rgb(109, 48, 243);" cx="400.976" cy="188.432" rx="20" ry="20"></ellipse>
    <ellipse style="stroke: rgb(255, 255, 255); fill-rule: nonzero; paint-order: stroke markers; fill: rgb(255, 255, 255);" cx="400.885" cy="188.569" rx="18" ry="18"></ellipse>
  </g>
  <path d="M 410.648 165.023 L 384.18 165.023 C 385.367 158.447 386.219 151.672 383.221 147.629 C 379.435 142.522 377.699 137.355 377.655 132.716 C 377.553 121.471 387.271 112.969 400.844 113.023 C 417.289 113.088 422.043 126.361 423.055 130.233 C 423.827 133.199 421.014 134.282 422.677 136.087 C 424.032 137.558 425.029 139.043 426.743 140.804 C 427.407 141.486 427.664 142.204 427.654 142.847 C 427.641 143.787 426.993 144.576 425.954 144.923 C 424.979 145.248 424.227 145.616 423.193 145.883 C 422.864 148.396 422.009 151.455 421.38 153.589 C 419.705 159.266 414.798 155.884 412.559 159.238 C 411.591 160.685 411.105 163.004 410.648 165.023 Z M 400.891 147.005 C 401.157 147.003 401.414 146.918 401.589 146.769 L 402.939 145.922 L 397.826 145.922 L 399.175 146.769 C 399.35 146.918 399.607 147.005 399.875 147.005 L 400.891 147.005 Z M 402.987 144.838 C 403.3 144.836 403.555 144.596 403.555 144.297 C 403.555 143.998 403.3 143.755 402.987 143.755 L 397.807 143.755 C 397.494 143.755 397.239 143.998 397.239 144.297 C 397.239 144.596 397.494 144.838 397.807 144.838 L 402.987 144.838 Z M 403.548 142.672 C 403.548 138.332 407.2 136.54 407.2 132.675 C 407.2 128.645 403.789 126.422 400.38 126.422 C 396.971 126.422 393.564 128.64 393.564 132.675 C 393.564 136.54 397.216 138.393 397.216 142.672 L 403.548 142.672 Z M 409.178 134.839 L 412.243 136.165 L 411.305 138.139 L 408.353 136.865 C 408.696 136.215 408.98 135.548 409.178 134.839 Z M 391.589 134.839 C 391.787 135.559 392.062 136.206 392.407 136.865 L 389.462 138.139 L 388.521 136.165 L 391.589 134.839 Z M 412.882 132.922 L 412.882 130.755 L 409.259 130.755 C 409.425 131.464 409.493 132.196 409.471 132.922 L 412.882 132.922 Z M 391.296 132.922 L 391.296 132.915 C 391.273 132.192 391.342 131.464 391.505 130.755 L 387.883 130.755 L 387.883 132.922 L 391.296 132.922 Z M 407.25 127.041 L 410.073 125.13 L 411.389 126.898 L 408.543 128.822 C 408.212 128.192 407.78 127.596 407.25 127.041 Z M 393.514 127.039 C 392.992 127.585 392.564 128.177 392.221 128.822 L 389.378 126.898 L 390.692 125.13 L 393.514 127.039 Z M 403.594 124.773 L 405.1 121.859 L 407.139 122.819 L 405.63 125.733 C 404.998 125.334 404.312 125.013 403.594 124.773 Z M 397.171 124.771 C 396.455 125.009 395.766 125.33 395.132 125.728 L 393.626 122.819 L 395.664 121.859 L 397.171 124.771 Z M 401.519 124.32 C 400.76 124.236 400.032 124.231 399.246 124.318 L 399.246 121.005 L 401.519 121.005 L 401.519 124.32 Z" style="fill: rgb(109, 48, 243);"></path>
  <text style="fill: rgb(109, 48, 243); font-family: Roboto; font-size: 31px; font-weight: 900; white-space: pre;" x="392.009" y="178.18" dx="-0.774" dy="19.869">1</text>
</svg>