<svg width="500" height="434" viewBox="0 0 500 434" fill="none" xmlns="http://www.w3.org/2000/svg">
<path d="M290.222 182.097L332.333 141.875L274.458 133.931L248.972 81.681L223.513 133.931L165.638 141.861L207.75 182.084L197.5 239.264L248.972 211.861L300.472 239.264L290.222 182.097ZM92.708 271.084C74.666 243.861 64.083 211.764 64.083 177.264C64.083 79.361 148.013 0 251.583 0C355.138 0 439.083 79.361 439.083 177.264C439.083 212.57 428.041 245.389 409.222 273.014C396.583 266.917 383.638 261.5 370.43 256.889C387.347 234.375 397.416 206.931 397.416 177.264C397.416 101.25 331.972 39.403 251.583 39.403C171.18 39.403 105.75 101.25 105.75 177.264C105.75 206.347 115.375 233.292 131.666 255.556C118.416 259.986 105.416 265.167 92.708 271.084ZM411.597 319.347L362.972 384.778C329.583 366.584 291.138 355.945 250 355.764C208.847 355.945 170.416 366.584 137.013 384.778L88.388 319.347C135.597 292.042 190.722 275.972 250 275.792C309.263 275.972 364.388 292.042 411.597 319.347ZM500 374.25H450.847L439.055 433.334C426.291 413.403 410.138 395.667 391.625 380.542L440.43 314.847C463.097 332.167 483.18 351.25 500 374.25ZM59.583 314.847L108.388 380.542C89.847 395.695 73.722 413.403 60.958 433.334L49.166 374.25H0C16.805 351.25 36.888 332.167 59.583 314.847Z" fill="#6D30F3"/>
<path d="M249.569 271.514C308.48 271.514 356.236 223.758 356.236 164.847C356.236 105.936 308.48 58.18 249.569 58.18C190.658 58.18 142.902 105.936 142.902 164.847C142.902 223.758 190.658 271.514 249.569 271.514Z" fill="white"/>
<path d="M250 380.944C286.818 380.944 316.666 351.096 316.666 314.277C316.666 277.458 286.818 247.61 250 247.61C213.181 247.61 183.333 277.458 183.333 314.277C183.333 351.096 213.181 380.944 250 380.944Z" fill="#6D30F3" stroke="white" stroke-width="3.33333"/>
<path d="M249.696 374.734C282.833 374.734 309.696 347.871 309.696 314.734C309.696 281.597 282.833 254.734 249.696 254.734C216.559 254.734 189.696 281.597 189.696 314.734C189.696 347.871 216.559 374.734 249.696 374.734Z" fill="white" stroke="white" stroke-width="3.33333"/>
<path d="M282.236 236.25H194.013C197.972 214.334 200.805 191.75 190.819 178.264C178.194 161.25 172.416 144.014 172.263 128.556C171.916 91.07 204.319 62.736 249.555 62.917C304.375 63.125 320.222 107.375 323.597 120.278C326.166 130.167 316.791 133.778 322.333 139.792C326.847 144.695 330.18 149.653 335.888 155.514C338.097 157.792 338.958 160.181 338.93 162.334C338.888 165.459 336.722 168.084 333.263 169.25C330.013 170.334 327.5 171.556 324.055 172.445C322.958 180.82 320.111 191.014 318.013 198.139C312.43 217.056 296.069 205.778 288.611 216.959C285.388 221.792 283.763 229.514 282.236 236.25ZM249.722 176.181C250.597 176.181 251.458 175.903 252.041 175.403L256.541 172.584H239.5L244 175.403C244.583 175.903 245.43 176.181 246.333 176.181H249.722ZM256.708 168.959C257.75 168.959 258.597 168.153 258.597 167.167C258.597 166.167 257.75 165.347 256.708 165.347H239.43C238.388 165.347 237.541 166.167 237.541 167.167C237.541 168.153 238.388 168.959 239.43 168.959H256.708ZM258.569 161.75C258.569 147.278 270.75 141.306 270.75 128.417C270.75 114.986 259.375 107.584 248.013 107.584C236.652 107.584 225.291 114.972 225.291 128.417C225.291 141.306 237.472 147.486 237.472 161.75H258.569ZM277.333 135.639L287.555 140.056L284.43 146.639L274.583 142.389C275.736 140.222 276.68 138 277.333 135.639ZM218.708 135.639C219.375 138.028 220.291 140.195 221.43 142.389L211.625 146.639L208.486 140.056L218.708 135.639ZM289.68 129.25V122.014H277.611C278.166 124.389 278.388 126.82 278.319 129.25H289.68ZM217.736 129.25V129.222C217.652 126.806 217.888 124.389 218.43 122.014H206.361V129.25H217.736ZM270.916 109.639L280.319 103.264L284.708 109.167L275.222 115.584C274.125 113.472 272.68 111.486 270.916 109.639ZM225.125 109.639C223.388 111.459 221.958 113.431 220.819 115.584L211.333 109.167L215.722 103.264L225.125 109.639ZM258.722 102.084L263.75 92.361L270.541 95.57L265.513 105.278C263.402 103.945 261.125 102.875 258.722 102.084ZM237.319 102.07C234.93 102.861 232.638 103.931 230.513 105.264L225.5 95.57L232.291 92.361L237.319 102.07ZM251.805 100.57C249.277 100.292 246.847 100.278 244.236 100.57V89.514H251.805V100.57Z" fill="#6D30F3"/>
<path d="M276.867 336.915V349H223.371V338.688L248.669 311.563C251.211 308.735 253.216 306.246 254.685 304.098C256.153 301.913 257.209 299.962 257.854 298.243C258.534 296.489 258.874 294.824 258.874 293.248C258.874 290.885 258.48 288.862 257.692 287.179C256.905 285.46 255.741 284.135 254.201 283.204C252.697 282.273 250.835 281.808 248.615 281.808C246.252 281.808 244.211 282.381 242.492 283.526C240.809 284.672 239.52 286.266 238.625 288.307C237.766 290.348 237.336 292.657 237.336 295.235H221.813C221.813 290.58 222.924 286.319 225.144 282.452C227.364 278.549 230.497 275.452 234.543 273.16C238.589 270.833 243.387 269.669 248.938 269.669C254.416 269.669 259.035 270.564 262.795 272.354C266.59 274.109 269.455 276.651 271.389 279.981C273.358 283.276 274.343 287.215 274.343 291.798C274.343 294.376 273.931 296.9 273.107 299.371C272.284 301.806 271.102 304.241 269.562 306.676C268.059 309.075 266.232 311.51 264.084 313.98C261.936 316.451 259.554 319.011 256.94 321.661L243.352 336.915H276.867Z" fill="#6D30F3"/>
</svg>
