<svg id="e0XRi8ZHwTb1" viewBox="0 0 801.95277 537" shape-rendering="geometricPrecision" text-rendering="geometricPrecision" xmlns="http://www.w3.org/2000/svg" xmlns:bx="https://boxy-svg.com">
  <defs>
    <style bx:fonts="Roboto">@import url(https://fonts.googleapis.com/css2?family=Roboto%3Aital%2Cwght%400%2C100%3B0%2C300%3B0%2C400%3B0%2C500%3B0%2C700%3B0%2C900%3B1%2C100%3B1%2C300%3B1%2C400%3B1%2C500%3B1%2C700%3B1%2C900&amp;display=swap);</style>
  </defs>
  <path d="M 432.484 227.235 L 474.595 187.013 L 416.72 179.069 L 391.234 126.819 L 365.775 179.069 L 307.9 186.999 L 350.012 227.222 L 339.762 284.402 L 391.234 256.999 L 442.734 284.402 L 432.484 227.235 Z M 234.97 316.222 C 216.928 288.999 206.345 256.902 206.345 222.402 C 206.345 124.499 290.275 45.138 393.845 45.138 C 497.4 45.138 581.345 124.499 581.345 222.402 C 581.345 257.708 570.303 290.527 551.484 318.152 C 538.845 312.055 525.9 306.638 512.692 302.027 C 529.609 279.513 539.678 252.069 539.678 222.402 C 539.678 146.388 474.234 84.541 393.845 84.541 C 313.442 84.541 248.012 146.388 248.012 222.402 C 248.012 251.485 257.637 278.43 273.928 300.694 C 260.678 305.124 247.678 310.305 234.97 316.222 Z M 553.859 364.485 L 505.234 429.916 C 471.845 411.722 433.4 401.083 392.262 400.902 C 351.109 401.083 312.678 411.722 279.275 429.916 L 230.65 364.485 C 277.859 337.18 332.984 321.11 392.262 320.93 C 451.525 321.11 506.65 337.18 553.859 364.485 Z M 642.262 419.388 L 593.109 419.388 L 581.317 478.472 C 568.553 458.541 552.4 440.805 533.887 425.68 L 582.692 359.985 C 605.359 377.305 625.442 396.388 642.262 419.388 Z M 201.845 359.985 L 250.65 425.68 C 232.109 440.833 215.984 458.541 203.22 478.472 L 191.428 419.388 L 142.262 419.388 C 159.067 396.388 179.15 377.305 201.845 359.985 Z" style="fill: rgb(109, 48, 243);"></path>
  <ellipse style="fill-rule: nonzero; paint-order: stroke markers; stroke: rgb(255, 255, 255); stroke-width: 0px; fill: rgb(255, 255, 255);" cx="391.831" cy="209.985" rx="106.667" ry="106.667"></ellipse>
  <g transform="matrix(3.333333, 0, 0, 3.333333, -944.325073, -268.69162)">
    <ellipse style="stroke: rgb(255, 255, 255); fill-rule: nonzero; paint-order: stroke markers; fill: rgb(109, 48, 243);" cx="400.976" cy="188.432" rx="20" ry="20"></ellipse>
    <ellipse style="stroke: rgb(255, 255, 255); fill-rule: nonzero; paint-order: stroke markers; fill: rgb(255, 255, 255);" cx="400.885" cy="188.569" rx="18" ry="18"></ellipse>
  </g>
  <path d="M 424.498 281.388 L 336.275 281.388 C 340.234 259.472 343.067 236.888 333.081 223.402 C 320.456 206.388 314.678 189.152 314.525 173.694 C 314.178 136.208 346.581 107.874 391.817 108.055 C 446.637 108.263 462.484 152.513 465.859 165.416 C 468.428 175.305 459.053 178.916 464.595 184.93 C 469.109 189.833 472.442 194.791 478.15 200.652 C 480.359 202.93 481.22 205.319 481.192 207.472 C 481.15 210.597 478.984 213.222 475.525 214.388 C 472.275 215.472 469.762 216.694 466.317 217.583 C 465.22 225.958 462.373 236.152 460.275 243.277 C 454.692 262.194 438.331 250.916 430.873 262.097 C 427.65 266.93 426.025 274.652 424.498 281.388 Z M 391.984 221.319 C 392.859 221.319 393.72 221.041 394.303 220.541 L 398.803 217.722 L 381.762 217.722 L 386.262 220.541 C 386.845 221.041 387.692 221.319 388.595 221.319 L 391.984 221.319 Z M 398.97 214.097 C 400.012 214.097 400.859 213.291 400.859 212.305 C 400.859 211.305 400.012 210.485 398.97 210.485 L 381.692 210.485 C 380.65 210.485 379.803 211.305 379.803 212.305 C 379.803 213.291 380.65 214.097 381.692 214.097 L 398.97 214.097 Z M 400.831 206.888 C 400.831 192.416 413.012 186.444 413.012 173.555 C 413.012 160.124 401.637 152.722 390.275 152.722 C 378.914 152.722 367.553 160.11 367.553 173.555 C 367.553 186.444 379.734 192.624 379.734 206.888 L 400.831 206.888 Z M 419.595 180.777 L 429.817 185.194 L 426.692 191.777 L 416.845 187.527 C 417.998 185.36 418.942 183.138 419.595 180.777 Z M 360.97 180.777 C 361.637 183.166 362.553 185.333 363.692 187.527 L 353.887 191.777 L 350.748 185.194 L 360.97 180.777 Z M 431.942 174.388 L 431.942 167.152 L 419.873 167.152 C 420.428 169.527 420.65 171.958 420.581 174.388 L 431.942 174.388 Z M 359.998 174.388 L 359.998 174.36 C 359.914 171.944 360.15 169.527 360.692 167.152 L 348.623 167.152 L 348.623 174.388 L 359.998 174.388 Z M 413.178 154.777 L 422.581 148.402 L 426.97 154.305 L 417.484 160.722 C 416.387 158.61 414.942 156.624 413.178 154.777 Z M 367.387 154.777 C 365.65 156.597 364.22 158.569 363.081 160.722 L 353.595 154.305 L 357.984 148.402 L 367.387 154.777 Z M 400.984 147.222 L 406.012 137.499 L 412.803 140.708 L 407.775 150.416 C 405.664 149.083 403.387 148.013 400.984 147.222 Z M 379.581 147.208 C 377.192 147.999 374.9 149.069 372.775 150.402 L 367.762 140.708 L 374.553 137.499 L 379.581 147.208 Z M 394.067 145.708 C 391.539 145.43 389.109 145.416 386.498 145.708 L 386.498 134.652 L 394.067 134.652 L 394.067 145.708 Z" style="fill: rgb(109, 48, 243);"></path>
  <text style="fill: rgb(109, 48, 243); font-family: Roboto; font-size: 102.8px; font-weight: 900; white-space: pre;" x="359.208" y="377.703" dx="-0.774" dy="19.869">2</text>
</svg>