<svg width="500" height="434" viewBox="0 0 500 434" fill="none" xmlns="http://www.w3.org/2000/svg">
<path d="M290.222 182.097L332.333 141.875L274.458 133.931L248.972 81.681L223.513 133.931L165.638 141.861L207.75 182.084L197.5 239.264L248.972 211.861L300.472 239.264L290.222 182.097ZM92.708 271.084C74.666 243.861 64.083 211.764 64.083 177.264C64.083 79.361 148.013 0 251.583 0C355.138 0 439.083 79.361 439.083 177.264C439.083 212.57 428.041 245.389 409.222 273.014C396.583 266.917 383.638 261.5 370.43 256.889C387.347 234.375 397.416 206.931 397.416 177.264C397.416 101.25 331.972 39.403 251.583 39.403C171.18 39.403 105.75 101.25 105.75 177.264C105.75 206.347 115.375 233.292 131.666 255.556C118.416 259.986 105.416 265.167 92.708 271.084ZM411.597 319.347L362.972 384.778C329.583 366.584 291.138 355.945 250 355.764C208.847 355.945 170.416 366.584 137.013 384.778L88.388 319.347C135.597 292.042 190.722 275.972 250 275.792C309.263 275.972 364.388 292.042 411.597 319.347ZM500 374.25H450.847L439.055 433.334C426.291 413.403 410.138 395.667 391.625 380.542L440.43 314.847C463.097 332.167 483.18 351.25 500 374.25ZM59.583 314.847L108.388 380.542C89.847 395.695 73.722 413.403 60.958 433.334L49.166 374.25H0C16.805 351.25 36.888 332.167 59.583 314.847Z" fill="#6D30F3"/>
<path d="M249.569 271.514C308.48 271.514 356.236 223.758 356.236 164.847C356.236 105.936 308.48 58.18 249.569 58.18C190.658 58.18 142.902 105.936 142.902 164.847C142.902 223.758 190.658 271.514 249.569 271.514Z" fill="white"/>
<path d="M250 380.944C286.818 380.944 316.666 351.096 316.666 314.277C316.666 277.458 286.818 247.61 250 247.61C213.181 247.61 183.333 277.458 183.333 314.277C183.333 351.096 213.181 380.944 250 380.944Z" fill="#6D30F3" stroke="white" stroke-width="3.33333"/>
<path d="M249.696 374.734C282.833 374.734 309.696 347.871 309.696 314.734C309.696 281.597 282.833 254.734 249.696 254.734C216.559 254.734 189.696 281.597 189.696 314.734C189.696 347.871 216.559 374.734 249.696 374.734Z" fill="white" stroke="white" stroke-width="3.33333"/>
<path d="M282.236 236.25H194.013C197.972 214.334 200.805 191.75 190.819 178.264C178.194 161.25 172.416 144.014 172.263 128.556C171.916 91.07 204.319 62.736 249.555 62.917C304.375 63.125 320.222 107.375 323.597 120.278C326.166 130.167 316.791 133.778 322.333 139.792C326.847 144.695 330.18 149.653 335.888 155.514C338.097 157.792 338.958 160.181 338.93 162.334C338.888 165.459 336.722 168.084 333.263 169.25C330.013 170.334 327.5 171.556 324.055 172.445C322.958 180.82 320.111 191.014 318.013 198.139C312.43 217.056 296.069 205.778 288.611 216.959C285.388 221.792 283.763 229.514 282.236 236.25ZM249.722 176.181C250.597 176.181 251.458 175.903 252.041 175.403L256.541 172.584H239.5L244 175.403C244.583 175.903 245.43 176.181 246.333 176.181H249.722ZM256.708 168.959C257.75 168.959 258.597 168.153 258.597 167.167C258.597 166.167 257.75 165.347 256.708 165.347H239.43C238.388 165.347 237.541 166.167 237.541 167.167C237.541 168.153 238.388 168.959 239.43 168.959H256.708ZM258.569 161.75C258.569 147.278 270.75 141.306 270.75 128.417C270.75 114.986 259.375 107.584 248.013 107.584C236.652 107.584 225.291 114.972 225.291 128.417C225.291 141.306 237.472 147.486 237.472 161.75H258.569ZM277.333 135.639L287.555 140.056L284.43 146.639L274.583 142.389C275.736 140.222 276.68 138 277.333 135.639ZM218.708 135.639C219.375 138.028 220.291 140.195 221.43 142.389L211.625 146.639L208.486 140.056L218.708 135.639ZM289.68 129.25V122.014H277.611C278.166 124.389 278.388 126.82 278.319 129.25H289.68ZM217.736 129.25V129.222C217.652 126.806 217.888 124.389 218.43 122.014H206.361V129.25H217.736ZM270.916 109.639L280.319 103.264L284.708 109.167L275.222 115.584C274.125 113.472 272.68 111.486 270.916 109.639ZM225.125 109.639C223.388 111.459 221.958 113.431 220.819 115.584L211.333 109.167L215.722 103.264L225.125 109.639ZM258.722 102.084L263.75 92.361L270.541 95.57L265.513 105.278C263.402 103.945 261.125 102.875 258.722 102.084ZM237.319 102.07C234.93 102.861 232.638 103.931 230.513 105.264L225.5 95.57L232.291 92.361L237.319 102.07ZM251.805 100.57C249.277 100.292 246.847 100.278 244.236 100.57V89.514H251.805V100.57Z" fill="#6D30F3"/>
<path d="M239.216 303.185H247.487C250.137 303.185 252.321 302.737 254.04 301.842C255.759 300.911 257.03 299.622 257.854 297.975C258.713 296.292 259.143 294.34 259.143 292.12C259.143 290.115 258.749 288.342 257.961 286.803C257.209 285.227 256.045 284.01 254.47 283.15C252.894 282.255 250.907 281.808 248.508 281.808C246.61 281.808 244.855 282.184 243.244 282.936C241.633 283.688 240.344 284.744 239.377 286.104C238.41 287.465 237.927 289.112 237.927 291.046H222.404C222.404 286.749 223.55 283.007 225.842 279.82C228.169 276.633 231.285 274.145 235.188 272.354C239.09 270.564 243.387 269.669 248.078 269.669C253.378 269.669 258.015 270.528 261.989 272.247C265.964 273.93 269.061 276.419 271.281 279.713C273.501 283.007 274.611 287.089 274.611 291.959C274.611 294.43 274.038 296.829 272.893 299.156C271.747 301.448 270.1 303.525 267.951 305.387C265.839 307.213 263.26 308.681 260.217 309.791C257.173 310.865 253.754 311.402 249.958 311.402H239.216V303.185ZM239.216 314.947V306.944H249.958C254.219 306.944 257.961 307.428 261.184 308.395C264.406 309.361 267.11 310.758 269.294 312.584C271.478 314.374 273.125 316.505 274.235 318.976C275.345 321.41 275.9 324.114 275.9 327.086C275.9 330.738 275.202 333.997 273.806 336.861C272.409 339.69 270.44 342.089 267.897 344.059C265.391 346.028 262.455 347.532 259.089 348.57C255.723 349.573 252.053 350.074 248.078 350.074C244.784 350.074 241.543 349.627 238.356 348.731C235.205 347.8 232.341 346.422 229.763 344.596C227.22 342.734 225.179 340.406 223.64 337.613C222.136 334.785 221.384 331.437 221.384 327.569H236.906C236.906 329.575 237.408 331.365 238.41 332.94C239.413 334.516 240.791 335.751 242.546 336.646C244.336 337.542 246.324 337.989 248.508 337.989C250.979 337.989 253.091 337.542 254.846 336.646C256.636 335.715 257.997 334.426 258.928 332.779C259.895 331.096 260.378 329.145 260.378 326.925C260.378 324.06 259.859 321.769 258.82 320.05C257.782 318.295 256.296 317.006 254.362 316.183C252.429 315.359 250.137 314.947 247.487 314.947H239.216Z" fill="#6D30F3"/>
</svg>
